<?xml version="1.0" encoding="UTF-8"?>
<!DOCTYPE svg PUBLIC "-//W3C//DTD SVG 1.1//EN" "http://www.w3.org/Graphics/SVG/1.1/DTD/svg11.dtd">
<svg xmlns="http://www.w3.org/2000/svg" version="1.1" width="145px" height="153px" style="shape-rendering:geometricPrecision; text-rendering:geometricPrecision; image-rendering:optimizeQuality; fill-rule:evenodd; clip-rule:evenodd" xmlns:xlink="http://www.w3.org/1999/xlink">
<g><path style="opacity:0.831" fill="#9dd498" d="M 56.5,-0.5 C 57.8333,-0.5 59.1667,-0.5 60.5,-0.5C 60.7373,0.791047 60.404,1.79105 59.5,2.5C 59.631,1.76109 59.4643,1.09442 59,0.5C 56.6985,1.86721 54.1985,2.53388 51.5,2.5C 53.2608,1.68729 54.9275,0.687286 56.5,-0.5 Z"/></g>
<g><path style="opacity:0.118" fill="#e8f5e7" d="M 84.5,-0.5 C 85.8333,-0.5 87.1667,-0.5 88.5,-0.5C 88.5,-0.166667 88.5,0.166667 88.5,0.5C 87.448,0.350549 86.448,0.517215 85.5,1C 86.2524,1.67076 86.5858,2.5041 86.5,3.5C 84.8958,2.71304 84.2291,1.3797 84.5,-0.5 Z"/></g>
<g><path style="opacity:0.004" fill="#edf7ec" d="M 43.5,2.5 C 44.3864,1.2241 45.3864,1.2241 46.5,2.5C 46.3764,3.10667 46.0431,3.44001 45.5,3.5C 45.1583,2.66175 44.4916,2.32842 43.5,2.5 Z"/></g>
<g><path style="opacity:1" fill="#59b850" d="M 88.5,0.5 C 92.2842,0.8891 95.2842,2.55577 97.5,5.5C 97.821,6.81748 98.1543,8.15082 98.5,9.5C 98.2528,10.7133 97.5862,11.38 96.5,11.5C 95.5084,11.6716 94.8417,11.3382 94.5,10.5C 94.0269,9.09368 93.0269,8.42702 91.5,8.5C 90.7377,6.73758 89.4044,5.73758 87.5,5.5C 86.6618,5.15829 86.3284,4.49162 86.5,3.5C 86.5858,2.5041 86.2524,1.67076 85.5,1C 86.448,0.517215 87.448,0.350549 88.5,0.5 Z"/></g>
<g><path style="opacity:1" fill="#42af3d" d="M 102.5,2.5 C 103.035,4.44563 104.368,5.44563 106.5,5.5C 107.5,5.83333 108.167,6.5 108.5,7.5C 108.738,9.40435 109.738,10.7377 111.5,11.5C 111.5,13.8333 111.5,16.1667 111.5,18.5C 106.547,19.3292 101.547,19.6625 96.5,19.5C 95.5,19.5 94.5,19.5 93.5,19.5C 92.6016,18.8423 91.6016,18.1757 90.5,17.5C 91.6016,16.8243 92.6016,16.1577 93.5,15.5C 96.2469,15.8134 98.9135,15.48 101.5,14.5C 100.496,12.3227 101.162,11.9893 103.5,13.5C 104.665,12.1405 104.332,11.1405 102.5,10.5C 102.5,10.1667 102.5,9.83333 102.5,9.5C 101.583,6.99518 101.583,4.66185 102.5,2.5 Z"/></g>
<g><path style="opacity:0.6" fill="#abd9a6" d="M 102.5,2.5 C 104.23,3.02561 105.564,4.02561 106.5,5.5C 104.368,5.44563 103.035,4.44563 102.5,2.5 Z"/></g>
<g><path style="opacity:0.898" fill="#8bcc85" d="M 43.5,2.5 C 42.0892,4.91395 40.0892,6.58062 37.5,7.5C 38.9108,5.08605 40.9108,3.41938 43.5,2.5 Z"/></g>
<g><path style="opacity:0.635" fill="#bde2b9" d="M 87.5,5.5 C 89.4044,5.73758 90.7377,6.73758 91.5,8.5C 89.5956,8.26242 88.2623,7.26242 87.5,5.5 Z"/></g>
<g><path style="opacity:0.125" fill="#d0ebce" d="M 102.5,2.5 C 101.583,4.66185 101.583,6.99518 102.5,9.5C 101.058,7.46035 100.058,5.12702 99.5,2.5C 100.614,1.2241 101.614,1.2241 102.5,2.5 Z"/></g>
<g><path style="opacity:0.741" fill="#aedba9" d="M 108.5,7.5 C 110.262,8.26231 111.262,9.59565 111.5,11.5C 109.738,10.7377 108.738,9.40435 108.5,7.5 Z"/></g>
<g><path style="opacity:0.486" fill="#abdaa8" d="M 91.5,8.5 C 93.0269,8.42702 94.0269,9.09368 94.5,10.5C 92.9731,10.573 91.9731,9.90632 91.5,8.5 Z"/></g>
<g><path style="opacity:1" fill="#8ecd87" d="M 97.5,5.5 C 99.1361,6.74894 100.303,8.4156 101,10.5C 101.69,11.7383 102.19,11.7383 102.5,10.5C 104.332,11.1405 104.665,12.1405 103.5,13.5C 101.162,11.9893 100.496,12.3227 101.5,14.5C 98.9135,15.48 96.2469,15.8134 93.5,15.5C 95.2922,14.6909 97.2922,14.1909 99.5,14C 98.0577,13.6232 97.0577,12.7899 96.5,11.5C 97.5862,11.38 98.2528,10.7133 98.5,9.5C 98.1543,8.15082 97.821,6.81748 97.5,5.5 Z"/></g>
<g><path style="opacity:0.541" fill="#a8d8a6" d="M 117.5,10.5 C 116.201,14.7025 116.201,19.0358 117.5,23.5C 115.917,24.3118 114.917,23.6452 114.5,21.5C 115.822,17.4336 115.822,13.2669 114.5,9C 116.157,8.27484 117.157,8.77484 117.5,10.5 Z"/></g>
<g><path style="opacity:0.608" fill="#a7d8a4" d="M 117.5,10.5 C 119.262,11.2623 120.262,12.5956 120.5,14.5C 118.738,13.7377 117.738,12.4044 117.5,10.5 Z"/></g>
<g><path style="opacity:0.016" fill="#e0f1de" d="M 49.5,11.5 C 48.7375,12.2679 47.7375,12.7679 46.5,13C 47.4158,13.2784 48.0825,13.7784 48.5,14.5C 47.1266,14.6567 45.7932,14.49 44.5,14C 45.6174,12.1079 47.2841,11.2746 49.5,11.5 Z"/></g>
<g><path style="opacity:0.027" fill="#d2ebd0" d="M 49.5,14.5 C 51.8984,14.2594 53.8984,14.9261 55.5,16.5C 53.2143,16.405 51.2143,15.7384 49.5,14.5 Z"/></g>
<g><path style="opacity:0.824" fill="#9cd598" d="M 93.5,15.5 C 92.6016,16.1577 91.6016,16.8243 90.5,17.5C 91.6016,18.1757 92.6016,18.8423 93.5,19.5C 85.7788,17.7998 85.7788,16.4665 93.5,15.5 Z"/></g>
<g><path style="opacity:0.898" fill="#90ce8a" d="M 56.5,17.5 C 57.0431,17.56 57.3764,17.8933 57.5,18.5C 56,18.8333 54.5,19.1667 53,19.5C 47.3141,20.3606 41.8141,20.694 36.5,20.5C 42.9379,18.8498 49.6046,17.8498 56.5,17.5 Z"/></g>
<g><path style="opacity:1" fill="#9cd496" d="M 111.5,11.5 C 112.019,14.9386 113.019,18.272 114.5,21.5C 111.789,21.5439 109.123,21.5439 106.5,21.5C 104.416,20.6779 101.082,20.0112 96.5,19.5C 101.547,19.6625 106.547,19.3292 111.5,18.5C 111.5,16.1667 111.5,13.8333 111.5,11.5 Z"/></g>
<g><path style="opacity:0.098" fill="#d9eed7" d="M 121.5,16.5 C 123.104,17.287 123.771,18.6203 123.5,20.5C 122.326,19.4863 121.66,18.153 121.5,16.5 Z"/></g>
<g><path style="opacity:0.102" fill="#e2f2e1" d="M 17.5,23.5 C 16.8826,23.3893 16.3826,23.056 16,22.5C 15.7216,23.4158 15.2216,24.0825 14.5,24.5C 14.5,23.5 14.5,22.5 14.5,21.5C 16.1788,21.2852 17.1788,21.9519 17.5,23.5 Z"/></g>
<g><path style="opacity:0.878" fill="#90ce8a" d="M 36.5,20.5 C 39.6893,21.1661 43.0227,21.8328 46.5,22.5C 45.6431,23.4252 44.6431,24.0919 43.5,24.5C 40.992,22.7629 37.992,21.9296 34.5,22C 35.0442,21.2828 35.7109,20.7828 36.5,20.5 Z"/></g>
<g><path style="opacity:0.027" fill="#e6f4e5" d="M 100.5,21.5 C 100.833,22.1667 101.167,22.8333 101.5,23.5C 99.5759,23.2893 99.2426,22.6226 100.5,21.5 Z"/></g>
<g><path style="opacity:0.459" fill="#bce1b9" d="M 131.5,26.5 C 130.849,25.9094 130.182,25.2427 129.5,24.5C 129.167,25 128.833,25.5 128.5,26C 127.923,30.1713 127.256,34.3379 126.5,38.5C 125.702,38.0431 125.369,37.3764 125.5,36.5C 126.201,32.2733 127.034,27.94 128,23.5C 130.658,22.306 131.824,23.306 131.5,26.5 Z"/></g>
<g><path style="opacity:0.349" fill="#c0e3be" d="M 101.5,23.5 C 103.027,23.427 104.027,24.0937 104.5,25.5C 102.973,25.573 101.973,24.9063 101.5,23.5 Z"/></g>
<g><path style="opacity:0.404" fill="#c6e6c4" d="M 123.5,21.5 C 124.715,25.0326 124.715,28.6992 123.5,32.5C 119.94,30.7175 119.94,29.7175 123.5,29.5C 123.5,26.8333 123.5,24.1667 123.5,21.5 Z"/></g>
<g><path style="opacity:0.514" fill="#aedcac" d="M 108.5,27.5 C 111.152,27.4095 113.485,28.0762 115.5,29.5C 114.167,29.5 112.833,29.5 111.5,29.5C 110.5,28.8333 109.5,28.1667 108.5,27.5 Z"/></g>
<g><path style="opacity:0.667" fill="#c1e4be" d="M 26.5,30.5 C 27.9187,29.5489 29.5853,29.2155 31.5,29.5C 32.5,30.8333 33.5,30.8333 34.5,29.5C 37.5051,30.3753 37.8384,31.3753 35.5,32.5C 34.0813,31.5489 32.4147,31.2155 30.5,31.5C 29.4324,30.5655 28.099,30.2322 26.5,30.5 Z"/></g>
<g><path style="opacity:0.651" fill="#c2e5c0" d="M 111.5,29.5 C 112.568,30.4345 113.901,30.7678 115.5,30.5C 115.5,30.8333 115.5,31.1667 115.5,31.5C 113.585,31.2155 111.919,31.5489 110.5,32.5C 107.662,30.6941 107.995,29.6941 111.5,29.5 Z"/></g>
<g><path style="opacity:0.012" fill="#eff8ee" d="M 115.5,30.5 C 115.5,30.1667 115.5,29.8333 115.5,29.5C 117.179,29.2852 118.179,29.9519 118.5,31.5C 118.167,31.5 117.833,31.5 117.5,31.5C 117.158,30.6618 116.492,30.3284 115.5,30.5 Z"/></g>
<g><path style="opacity:0.962" fill="#fdfdfd" d="M 35.5,32.5 C 60.5,33.8333 85.5,33.8333 110.5,32.5C 113.859,35.5285 117.192,38.5285 120.5,41.5C 119.662,41.8417 119.328,42.5084 119.5,43.5C 118.761,43.369 118.094,43.5357 117.5,44C 118.758,45.7409 119.758,47.5742 120.5,49.5C 119.339,62.9938 119.173,76.6604 120,90.5C 120.893,89.2888 121.726,89.2888 122.5,90.5C 123.246,91.7362 123.579,93.0695 123.5,94.5C 122.685,93.5707 121.852,92.5707 121,91.5C 120.667,91.8333 120.333,92.1667 120,92.5C 118.712,99.4369 118.212,106.437 118.5,113.5C 118.098,110.523 117.098,107.857 115.5,105.5C 114.833,104.167 114.167,104.167 113.5,105.5C 86.1667,105.5 58.8333,105.5 31.5,105.5C 30.8333,104.167 30.1667,104.167 29.5,105.5C 28.8333,107.833 28.1667,110.167 27.5,112.5C 28.1032,104.923 27.1032,97.5899 24.5,90.5C 23.3037,92.1446 22.3037,93.8113 21.5,95.5C 20.794,94.4427 20.4607,94.7761 20.5,96.5C 20.1667,96.5 19.8333,96.5 19.5,96.5C 20.3739,93.2107 21.0405,89.8774 21.5,86.5C 22.162,84.6965 22.4954,82.6965 22.5,80.5C 22.4609,78.0478 21.7943,76.0478 20.5,74.5C 21.8146,73.1054 21.4812,72.1054 19.5,71.5C 20.7223,67.3319 22.0556,63.1653 23.5,59C 23.3166,57.3164 22.6499,57.1498 21.5,58.5C 21.6716,57.5084 21.3382,56.8417 20.5,56.5C 23.1398,52.1841 25.8065,47.8507 28.5,43.5C 28.1667,43.1667 27.8333,42.8333 27.5,42.5C 24.7984,44.22 22.1318,45.8866 19.5,47.5C 19.5,47.1667 19.5,46.8333 19.5,46.5C 20.1667,46.5 20.5,46.1667 20.5,45.5C 21.8333,45.1667 21.8333,44.8333 20.5,44.5C 25.6433,40.7512 30.6433,36.7512 35.5,32.5 Z"/></g>
<g><path style="opacity:0.114" fill="#e1f2e0" d="M 133.5,35.5 C 134.867,38.0118 134.534,40.3452 132.5,42.5C 132.993,40.1944 133.326,37.861 133.5,35.5 Z"/></g>
<g><path style="opacity:0.722" fill="#addba9" d="M 13.5,30.5 C 13.5,34.8333 13.5,39.1667 13.5,43.5C 10.8333,39.1667 10.8333,34.8333 13.5,30.5 Z"/></g>
<g><path style="opacity:0.341" fill="#c2e3bf" d="M 121.5,41.5 C 123.027,41.427 124.027,42.0937 124.5,43.5C 122.973,43.573 121.973,42.9063 121.5,41.5 Z"/></g>
<g><path style="opacity:0.598" fill="#a9d9a6" d="M 7.5,41.5 C 6.51192,46.6405 6.17859,51.9738 6.5,57.5C 5.34745,51.6812 5.18079,45.6812 6,39.5C 6.71719,40.0442 7.21719,40.7109 7.5,41.5 Z"/></g>
<g><path style="opacity:0.678" fill="#bbe1b8" d="M 138.5,60.5 C 138.928,56.5162 139.261,52.5162 139.5,48.5C 139.471,45.7305 138.805,43.3972 137.5,41.5C 138.008,39.7673 138.841,39.434 140,40.5C 140.246,43.8897 140.746,47.223 141.5,50.5C 140.74,54.0199 139.74,57.3532 138.5,60.5 Z"/></g>
<g><path style="opacity:0.886" fill="#a4d79e" d="M 121.5,51.5 C 123.446,52.0347 124.446,53.368 124.5,55.5C 123.026,54.5637 122.026,53.2303 121.5,51.5 Z"/></g>
<g><path style="opacity:0.104" fill="#ebf6ea" d="M 123.5,57.5 C 122.662,57.8417 122.328,58.5084 122.5,59.5C 121.224,58.6136 121.224,57.6136 122.5,56.5C 123.107,56.6236 123.44,56.9569 123.5,57.5 Z"/></g>
<g><path style="opacity:0.122" fill="#d4ecd3" d="M 6.5,58.5 C 7.67373,59.5137 8.3404,60.847 8.5,62.5C 6.89578,61.713 6.22911,60.3797 6.5,58.5 Z"/></g>
<g><path style="opacity:1" fill="#d7a78c" d="M 79.5,53.5 C 77.9519,53.8212 77.2852,54.8212 77.5,56.5C 74.1012,57.0164 70.7679,57.8497 67.5,59C 64.6392,61.5238 61.4725,63.6904 58,65.5C 56.2382,65.0556 56.4049,64.5556 58.5,64C 57.7562,62.9614 56.7562,62.4614 55.5,62.5C 62.1809,55.4739 70.1809,52.4739 79.5,53.5 Z"/></g>
<g><path style="opacity:1" fill="#b9876e" d="M 79.5,53.5 C 81.4707,55.8082 83.4707,58.1415 85.5,60.5C 84.5207,61.7653 83.5207,63.0986 82.5,64.5C 81.6922,62.5767 81.1922,60.5767 81,58.5C 80.2753,57.9415 79.4419,57.6082 78.5,57.5C 74.6553,59.2833 70.6553,60.7833 66.5,62C 65.2899,63.0391 64.2899,64.2058 63.5,65.5C 59.4362,65.7746 55.7695,66.7746 52.5,68.5C 51.8333,68.5 51.5,68.1667 51.5,67.5C 51.774,65.0194 53.1073,63.3527 55.5,62.5C 56.7562,62.4614 57.7562,62.9614 58.5,64C 56.4049,64.5556 56.2382,65.0556 58,65.5C 61.4725,63.6904 64.6392,61.5238 67.5,59C 70.7679,57.8497 74.1012,57.0164 77.5,56.5C 77.2852,54.8212 77.9519,53.8212 79.5,53.5 Z"/></g>
<g><path style="opacity:1" fill="#50b349" d="M 59.5,2.5 C 57.4047,6.93119 54.0714,9.93119 49.5,11.5C 47.2841,11.2746 45.6174,12.1079 44.5,14C 45.7932,14.49 47.1266,14.6567 48.5,14.5C 48.8333,14.5 49.1667,14.5 49.5,14.5C 51.2143,15.7384 53.2143,16.405 55.5,16.5C 56.1667,16.5 56.5,16.8333 56.5,17.5C 49.6046,17.8498 42.9379,18.8498 36.5,20.5C 35.7109,20.7828 35.0442,21.2828 34.5,22C 37.992,21.9296 40.992,22.7629 43.5,24.5C 40.6293,26.4345 37.6293,28.1012 34.5,29.5C 33.5,29.5 32.5,29.5 31.5,29.5C 29.5853,29.2155 27.9187,29.5489 26.5,30.5C 26.3691,31.3764 26.7025,32.0431 27.5,32.5C 28.4168,31.8728 29.4168,31.5394 30.5,31.5C 32.4147,31.2155 34.0813,31.5489 35.5,32.5C 30.6433,36.7512 25.6433,40.7512 20.5,44.5C 20.5,44.8333 20.5,45.1667 20.5,45.5C 19.8333,45.5 19.5,45.8333 19.5,46.5C 18.1667,46.8333 18.1667,47.1667 19.5,47.5C 22.1318,45.8866 24.7984,44.22 27.5,42.5C 27.8333,42.8333 28.1667,43.1667 28.5,43.5C 25.8065,47.8507 23.1398,52.1841 20.5,56.5C 19.1092,58.8903 17.1092,60.5569 14.5,61.5C 13.3709,63.6282 13.2042,65.9615 14,68.5C 15.0386,67.7562 15.5386,66.7562 15.5,65.5C 17.5869,64.4154 18.9202,62.7488 19.5,60.5C 19.8333,59.5 20.5,58.8333 21.5,58.5C 22.6499,57.1498 23.3166,57.3164 23.5,59C 22.0556,63.1653 20.7223,67.3319 19.5,71.5C 18.8305,74.8489 17.1639,77.5156 14.5,79.5C 13.1492,82.7723 13.3159,86.1056 15,89.5C 15.977,87.26 16.477,84.9267 16.5,82.5C 17.0787,79.6689 18.412,77.3356 20.5,75.5C 21.4816,78.9619 21.815,82.6286 21.5,86.5C 21.0405,89.8774 20.3739,93.2107 19.5,96.5C 18.4537,98.7849 18.4537,101.118 19.5,103.5C 19.7086,104.922 20.2086,106.255 21,107.5C 21.4986,103.848 21.6653,100.182 21.5,96.5C 21.5,96.1667 21.5,95.8333 21.5,95.5C 22.3037,93.8113 23.3037,92.1446 24.5,90.5C 27.1032,97.5899 28.1032,104.923 27.5,112.5C 27.67,113.822 27.3366,114.989 26.5,116C 27.3805,116.708 28.0472,117.542 28.5,118.5C 28.7828,119.289 29.2828,119.956 30,120.5C 30.1745,115.649 30.6745,110.982 31.5,106.5C 31.427,108.027 32.0937,109.027 33.5,109.5C 33.5,109.833 33.5,110.167 33.5,110.5C 33.427,112.027 34.0937,113.027 35.5,113.5C 35.5,113.833 35.5,114.167 35.5,114.5C 35.6596,116.153 36.3263,117.486 37.5,118.5C 37.5,118.833 37.5,119.167 37.5,119.5C 37.7526,123.04 38.4192,126.373 39.5,129.5C 41.0481,129.179 41.7148,128.179 41.5,126.5C 41.2053,124.265 41.5386,122.265 42.5,120.5C 44.1667,121.5 45.5,122.833 46.5,124.5C 46.7376,126.404 47.7376,127.738 49.5,128.5C 49.7376,130.404 50.7376,131.738 52.5,132.5C 52.8333,132.5 53.1667,132.5 53.5,132.5C 53.3284,133.492 53.6618,134.158 54.5,134.5C 54.5,133.833 54.5,133.167 54.5,132.5C 54.2852,130.821 54.9519,129.821 56.5,129.5C 57.4916,129.328 58.1583,129.662 58.5,130.5C 59.344,132.759 61.0107,133.759 63.5,133.5C 65.0269,133.427 66.0269,134.094 66.5,135.5C 67.6298,137.315 68.2964,139.315 68.5,141.5C 71.5,141.5 74.5,141.5 77.5,141.5C 77.6287,139.784 77.962,138.117 78.5,136.5C 80.7488,135.92 82.4154,134.587 83.5,132.5C 85.0269,132.573 86.0269,131.906 86.5,130.5C 88.7411,130.046 90.7411,130.046 92.5,130.5C 91.6618,130.842 91.3284,131.508 91.5,132.5C 91.5,133.167 91.5,133.833 91.5,134.5C 90.8333,134.833 90.1667,135.167 89.5,135.5C 88.1634,136.315 87.1634,137.482 86.5,139C 87.7494,139.74 88.7494,139.573 89.5,138.5C 89.5,138.167 89.5,137.833 89.5,137.5C 90.1667,137.167 90.8333,136.833 91.5,136.5C 93.3794,135.105 94.3794,133.105 94.5,130.5C 94.5,129.833 94.8333,129.5 95.5,129.5C 97.2624,128.738 98.2624,127.404 98.5,125.5C 100.167,123.167 102.167,121.167 104.5,119.5C 105.338,119.842 105.672,120.508 105.5,121.5C 105.425,124.206 105.092,126.873 104.5,129.5C 103.833,129.5 103.5,129.833 103.5,130.5C 102.833,130.5 102.5,130.833 102.5,131.5C 103.176,132.479 103.176,133.812 102.5,135.5C 102.158,136.338 101.492,136.672 100.5,136.5C 99.5266,136.987 98.5266,137.487 97.5,138C 100.146,138.497 102.813,138.664 105.5,138.5C 107.621,138.325 109.621,138.659 111.5,139.5C 111.953,140.458 112.619,141.292 113.5,142C 107.36,144.119 101.027,144.952 94.5,144.5C 93.3515,141.913 91.6848,140.913 89.5,141.5C 87.076,141.192 84.7427,141.526 82.5,142.5C 83.6685,144.217 85.3352,144.884 87.5,144.5C 90.7598,145.774 93.7598,147.44 96.5,149.5C 95.6661,150.748 94.3328,151.415 92.5,151.5C 88.824,150.829 85.1573,150.162 81.5,149.5C 81.0269,148.094 80.0269,147.427 78.5,147.5C 78.0269,146.094 77.0269,145.427 75.5,145.5C 74.0536,144.387 72.3869,144.22 70.5,145C 68.3668,148.309 65.3668,150.142 61.5,150.5C 58.5176,150.963 55.5176,151.296 52.5,151.5C 51.1266,151.657 49.7932,151.49 48.5,151C 49.056,150.617 49.3893,150.117 49.5,149.5C 51.0269,149.573 52.0269,148.906 52.5,147.5C 52.8333,147.5 53.1667,147.5 53.5,147.5C 55.0269,147.573 56.0269,146.906 56.5,145.5C 57.209,144.596 58.209,144.263 59.5,144.5C 60.5,144.5 61.5,144.5 62.5,144.5C 62.5,143.5 62.5,142.5 62.5,141.5C 59.6146,141.194 56.9479,141.527 54.5,142.5C 48.2635,147.093 41.5968,147.76 34.5,144.5C 32.4939,143.515 30.8273,142.182 29.5,140.5C 32.9458,139.313 36.6125,138.646 40.5,138.5C 42.8568,138.663 45.1902,138.497 47.5,138C 46.4734,137.487 45.4734,136.987 44.5,136.5C 44.0269,135.094 43.0269,134.427 41.5,134.5C 36.8602,135.397 32.1935,135.564 27.5,135C 25.9336,134.392 24.6002,133.558 23.5,132.5C 23.0269,131.094 22.0269,130.427 20.5,130.5C 18.5956,130.262 17.2623,129.262 16.5,127.5C 16.3893,126.883 16.056,126.383 15.5,126C 18.8168,125.502 22.1501,125.335 25.5,125.5C 26.1667,125.5 26.8333,125.5 27.5,125.5C 28.9425,126.703 30.6092,127.203 32.5,127C 31.6266,125.955 30.6266,125.122 29.5,124.5C 27.0801,122.08 24.0801,120.913 20.5,121C 18.9336,120.392 17.6002,119.558 16.5,118.5C 16.0269,117.094 15.0269,116.427 13.5,116.5C 10.4503,114.451 8.11698,111.784 6.5,108.5C 6.58577,107.504 6.25244,106.671 5.5,106C 7.48838,105.82 9.48838,105.986 11.5,106.5C 13.5824,106.472 15.4157,107.139 17,108.5C 17.3152,107.092 16.9819,105.759 16,104.5C 7.54261,100.952 2.37594,94.6191 0.5,85.5C 0.262695,84.209 0.596028,83.209 1.5,82.5C 5.08194,84.1198 8.08194,86.4531 10.5,89.5C 10.56,90.0431 10.8933,90.3764 11.5,90.5C 12.949,88.0881 12.6157,86.0881 10.5,84.5C 9.83333,83.5 9.16667,82.5 8.5,81.5C 7.59774,79.6593 6.26441,78.326 4.5,77.5C 4.59794,75.4471 3.93127,73.7804 2.5,72.5C 1.76589,71.2921 1.43255,69.9587 1.5,68.5C 1.68155,66.4086 1.34822,64.4086 0.5,62.5C 0.956892,61.7025 1.62356,61.3691 2.5,61.5C 3.16667,62.8333 4.16667,63.8333 5.5,64.5C 7.26242,65.2623 8.26242,66.5956 8.5,68.5C 8.68535,70.1958 9.51869,71.5291 11,72.5C 11.8045,69.3035 11.6378,66.3035 10.5,63.5C 9.50838,63.6716 8.84171,63.3382 8.5,62.5C 8.3404,60.847 7.67373,59.5137 6.5,58.5C 6.5,58.1667 6.5,57.8333 6.5,57.5C 6.17859,51.9738 6.51192,46.6405 7.5,41.5C 7.42702,43.0269 8.09368,44.0269 9.5,44.5C 9.42702,46.0269 10.0937,47.0269 11.5,47.5C 11.5,47.8333 11.5,48.1667 11.5,48.5C 12.5878,54.988 13.9211,54.8213 15.5,48C 15.472,46.9302 15.1386,46.0968 14.5,45.5C 13.6618,45.1583 13.3284,44.4916 13.5,43.5C 13.5,39.1667 13.5,34.8333 13.5,30.5C 13.2053,28.2646 13.5386,26.2646 14.5,24.5C 15.2216,24.0825 15.7216,23.4158 16,22.5C 16.3826,23.056 16.8826,23.3893 17.5,23.5C 18.404,24.209 18.7373,25.209 18.5,26.5C 18.1774,30.226 18.5108,33.8927 19.5,37.5C 20.2975,37.0431 20.6309,36.3764 20.5,35.5C 20.3284,34.5084 20.6618,33.8417 21.5,33.5C 23.3818,32.779 23.7152,31.779 22.5,30.5C 19.9007,21.9972 22.2341,14.9972 29.5,9.5C 30.4841,12.4281 30.8174,15.4281 30.5,18.5C 29.7656,19.8775 29.0989,21.3775 28.5,23C 30.8411,23.1681 32.1744,22.0014 32.5,19.5C 33.1347,16.1138 34.1347,12.7804 35.5,9.5C 35.8333,8.5 36.5,7.83333 37.5,7.5C 40.0892,6.58062 42.0892,4.91395 43.5,2.5C 44.4916,2.32842 45.1583,2.66175 45.5,3.5C 45.7373,4.79105 45.404,5.79105 44.5,6.5C 43.596,7.20895 43.2627,8.20895 43.5,9.5C 43.5,10.1667 43.8333,10.5 44.5,10.5C 46.5869,9.41543 47.9202,7.74876 48.5,5.5C 49.8333,4.83333 50.8333,3.83333 51.5,2.5C 54.1985,2.53388 56.6985,1.86721 59,0.5C 59.4643,1.09442 59.631,1.76109 59.5,2.5 Z M 19.5,96.5 C 19.8333,96.5 20.1667,96.5 20.5,96.5C 20.8016,99.0593 20.4682,101.393 19.5,103.5C 18.4537,101.118 18.4537,98.7849 19.5,96.5 Z M 54.5,134.5 C 55.1667,135.167 55.8333,135.833 56.5,136.5C 56.1583,137.338 55.4916,137.672 54.5,137.5C 54.5,136.5 54.5,135.5 54.5,134.5 Z M 91.5,134.5 C 91.5,135.167 91.5,135.833 91.5,136.5C 90.8333,136.833 90.1667,137.167 89.5,137.5C 89.5,136.833 89.5,136.167 89.5,135.5C 90.1667,135.167 90.8333,134.833 91.5,134.5 Z"/></g>
<g><path style="opacity:0.78" fill="#aadaa6" d="M 19.5,60.5 C 18.9202,62.7488 17.5869,64.4154 15.5,65.5C 15.5,64.8333 15.5,64.1667 15.5,63.5C 16.8333,62.5 18.1667,61.5 19.5,60.5 Z"/></g>
<g><path style="opacity:0.008" fill="#cfe9cd" d="M 2.5,61.5 C 4.5,61.5 5.5,62.5 5.5,64.5C 4.16667,63.8333 3.16667,62.8333 2.5,61.5 Z"/></g>
<g><path style="opacity:0.702" fill="#93cf8e" d="M 14.5,45.5 C 15.1386,46.0968 15.472,46.9302 15.5,48C 13.9211,54.8213 12.5878,54.988 11.5,48.5C 12.2679,49.2625 12.7679,50.2625 13,51.5C 13.813,49.5643 14.313,47.5643 14.5,45.5 Z"/></g>
<g><path style="opacity:0.196" fill="#cfe9cd" d="M 9.5,44.5 C 10.9063,44.9731 11.573,45.9731 11.5,47.5C 10.0937,47.0269 9.42702,46.0269 9.5,44.5 Z"/></g>
<g><path style="opacity:0.478" fill="#abdaa8" d="M 7.5,41.5 C 8.90632,41.9731 9.57298,42.9731 9.5,44.5C 8.09368,44.0269 7.42702,43.0269 7.5,41.5 Z"/></g>
<g><path style="opacity:0.647" fill="#9fd59b" d="M 18.5,26.5 C 19.1667,29.5 19.8333,32.5 20.5,35.5C 20.6309,36.3764 20.2975,37.0431 19.5,37.5C 18.5108,33.8927 18.1774,30.226 18.5,26.5 Z"/></g>
<g><path style="opacity:0.325" fill="#c9e8c7" d="M 22.5,30.5 C 23.7152,31.779 23.3818,32.779 21.5,33.5C 21.5569,32.391 21.8902,31.391 22.5,30.5 Z"/></g>
<g><path style="opacity:0.024" fill="#c7e6c5" d="M 30.5,18.5 C 30.4088,20.6977 31.0755,21.0311 32.5,19.5C 32.1744,22.0014 30.8411,23.1681 28.5,23C 29.0989,21.3775 29.7656,19.8775 30.5,18.5 Z"/></g>
<g><path style="opacity:0.302" fill="#d3ecd1" d="M 35.5,9.5 C 34.1347,12.7804 33.1347,16.1138 32.5,19.5C 32.3359,16.8127 32.5026,14.146 33,11.5C 33.7083,10.6195 34.5416,9.9528 35.5,9.5 Z"/></g>
<g><path style="opacity:0.004" fill="#c7e6c4" d="M 48.5,5.5 C 47.9202,7.74876 46.5869,9.41543 44.5,10.5C 43.8333,10.5 43.5,10.1667 43.5,9.5C 43.2627,8.20895 43.596,7.20895 44.5,6.5C 44.369,7.23891 44.5357,7.90558 45,8.5C 46.0391,7.2899 47.2058,6.2899 48.5,5.5 Z"/></g>
<g><path style="opacity:0.455" fill="#bae0b7" d="M 51.5,2.5 C 50.8333,3.83333 49.8333,4.83333 48.5,5.5C 48.5,3.5 49.5,2.5 51.5,2.5 Z"/></g>
<g><path style="opacity:0.008" fill="#d8eed7" d="M 122.5,60.5 C 124.072,63.2154 125.072,66.2154 125.5,69.5C 123.528,66.9164 122.528,63.9164 122.5,60.5 Z"/></g>
<g><path style="opacity:1" fill="#cb977a" d="M 103.5,69.5 C 100.909,70.2543 99.0757,71.921 98,74.5C 95.8665,72.8624 93.3665,72.029 90.5,72C 88.114,70.1127 86.9473,67.6127 87,64.5C 86.6667,65.1667 86.3333,65.8333 86,66.5C 85.51,65.2068 85.3433,63.8734 85.5,62.5C 87.1857,60.9835 89.019,59.6502 91,58.5C 96.9423,60.2107 101.109,63.8773 103.5,69.5 Z"/></g>
<g><path style="opacity:0.22" fill="#cbe8c9" d="M -0.5,60.5 C 0.791047,60.2627 1.79105,60.596 2.5,61.5C 1.62356,61.3691 0.956892,61.7025 0.5,62.5C 1.34822,64.4086 1.68155,66.4086 1.5,68.5C 0.833333,67.1667 0.166667,65.8333 -0.5,64.5C -0.5,63.1667 -0.5,61.8333 -0.5,60.5 Z"/></g>
<g><path style="opacity:0.239" fill="#b9e0b7" d="M 14.5,61.5 C 14.8333,62.1667 15.1667,62.8333 15.5,63.5C 14.1667,64.1667 14.1667,64.8333 15.5,65.5C 15.5386,66.7562 15.0386,67.7562 14,68.5C 13.2042,65.9615 13.3709,63.6282 14.5,61.5 Z"/></g>
<g><path style="opacity:0.545" fill="#a5d8a3" d="M 10.5,63.5 C 11.6378,66.3035 11.8045,69.3035 11,72.5C 9.51869,71.5291 8.68535,70.1958 8.5,68.5C 9.11742,68.6107 9.61742,68.944 10,69.5C 10.4955,67.5273 10.6621,65.5273 10.5,63.5 Z"/></g>
<g><path style="opacity:1" fill="#6a3f28" d="M 71.5,63.5 C 70.5,64.5 69.5,65.5 68.5,66.5C 67.0779,66.7496 66.0779,67.583 65.5,69C 60.9796,69.8136 56.6463,69.647 52.5,68.5C 55.7695,66.7746 59.4362,65.7746 63.5,65.5C 65.7567,65.0383 67.7567,64.0383 69.5,62.5C 70.1835,62.8627 70.8501,63.1961 71.5,63.5 Z"/></g>
<g><path style="opacity:1" fill="#d19f84" d="M 68.5,66.5 C 67.8333,67.8333 67.1667,69.1667 66.5,70.5C 66.5,71.5 66.5,72.5 66.5,73.5C 58.6302,74.4161 50.6302,74.4161 42.5,73.5C 40.0758,72.6481 37.7424,71.6481 35.5,70.5C 35.6107,69.8826 35.944,69.3826 36.5,69C 41.5824,68.7814 46.5824,68.2814 51.5,67.5C 51.5,68.1667 51.8333,68.5 52.5,68.5C 56.6463,69.647 60.9796,69.8136 65.5,69C 66.0779,67.583 67.0779,66.7496 68.5,66.5 Z"/></g>
<g><path style="opacity:1" fill="#58382b" d="M 71.5,72.5 C 71.1583,73.3382 70.4916,73.6716 69.5,73.5C 68.2719,72.6935 67.2719,71.6935 66.5,70.5C 67.1667,69.1667 67.8333,67.8333 68.5,66.5C 69.5,65.5 70.5,64.5 71.5,63.5C 74.028,62.8155 76.1947,61.4822 78,59.5C 80.0737,62.1374 79.907,64.6374 77.5,67C 74.905,67.2256 72.405,67.7256 70,68.5C 70.1433,69.8649 70.6433,71.1982 71.5,72.5 Z"/></g>
<g><path style="opacity:1" fill="#d39c7e" d="M 59.5,79.5 C 60.1667,78.1667 61.1667,77.1667 62.5,76.5C 65.096,75.9451 67.4293,74.9451 69.5,73.5C 70.4916,73.6716 71.1583,73.3382 71.5,72.5C 73.9013,71.9512 76.2346,71.1178 78.5,70C 80.1667,69.3333 81.8333,69.3333 83.5,70C 84.8037,72.478 83.9704,73.978 81,74.5C 78.6337,73.0615 78.1337,73.5615 79.5,76C 75.7743,76.4277 72.441,77.761 69.5,80C 65.9733,80.8075 62.6399,80.6408 59.5,79.5 Z"/></g>
<g><path style="opacity:1" fill="#8f6551" d="M 85.5,60.5 C 85.5,61.1667 85.5,61.8333 85.5,62.5C 85.3433,63.8734 85.51,65.2068 86,66.5C 86.3333,65.8333 86.6667,65.1667 87,64.5C 86.9473,67.6127 88.114,70.1127 90.5,72C 93.3665,72.029 95.8665,72.8624 98,74.5C 99.0757,71.921 100.909,70.2543 103.5,69.5C 103.5,70.5 103.5,71.5 103.5,72.5C 100.353,77.8986 95.6863,79.732 89.5,78C 88.8742,77.2496 88.3742,76.4162 88,75.5C 80.6256,83.4609 71.4589,86.7942 60.5,85.5C 60.4226,84.2502 59.756,83.4169 58.5,83C 53.3165,82.8261 48.3165,82.3261 43.5,81.5C 49.1348,82.0366 54.4682,81.3699 59.5,79.5C 62.6399,80.6408 65.9733,80.8075 69.5,80C 72.441,77.761 75.7743,76.4277 79.5,76C 78.1337,73.5615 78.6337,73.0615 81,74.5C 83.9704,73.978 84.8037,72.478 83.5,70C 81.8333,69.3333 80.1667,69.3333 78.5,70C 76.2346,71.1178 73.9013,71.9512 71.5,72.5C 70.6433,71.1982 70.1433,69.8649 70,68.5C 72.405,67.7256 74.905,67.2256 77.5,67C 79.907,64.6374 80.0737,62.1374 78,59.5C 76.1947,61.4822 74.028,62.8155 71.5,63.5C 70.8501,63.1961 70.1835,62.8627 69.5,62.5C 67.7567,64.0383 65.7567,65.0383 63.5,65.5C 64.2899,64.2058 65.2899,63.0391 66.5,62C 70.6553,60.7833 74.6553,59.2833 78.5,57.5C 79.4419,57.6082 80.2753,57.9415 81,58.5C 81.1922,60.5767 81.6922,62.5767 82.5,64.5C 83.5207,63.0986 84.5207,61.7653 85.5,60.5 Z"/></g>
<g><path style="opacity:0.4" fill="#c7e7c6" d="M 124.5,73.5 C 123.84,74.964 123.507,76.6307 123.5,78.5C 124.168,83.8414 124.835,89.1747 125.5,94.5C 122.651,87.4809 121.984,80.1476 123.5,72.5C 124.107,72.6236 124.44,72.9569 124.5,73.5 Z"/></g>
<g><path style="opacity:0.271" fill="#cde9cb" d="M 2.5,72.5 C 3.93127,73.7804 4.59794,75.4471 4.5,77.5C 3.06873,76.2196 2.40206,74.5529 2.5,72.5 Z"/></g>
<g><path style="opacity:1" fill="#916755" d="M 35.5,70.5 C 37.7424,71.6481 40.0758,72.6481 42.5,73.5C 50.6302,74.4161 58.6302,74.4161 66.5,73.5C 66.5,72.5 66.5,71.5 66.5,70.5C 67.2719,71.6935 68.2719,72.6935 69.5,73.5C 67.4293,74.9451 65.096,75.9451 62.5,76.5C 62.2648,75.9033 61.7648,75.5699 61,75.5C 58.4589,76.007 55.9589,76.6737 53.5,77.5C 53.7093,78.086 54.0426,78.586 54.5,79C 49.6486,79.1745 44.9819,79.6745 40.5,80.5C 39.1667,79.5 37.8333,78.5 36.5,77.5C 35.3146,76.1434 34.3146,74.6434 33.5,73C 33.6387,71.699 34.3054,70.8656 35.5,70.5 Z"/></g>
<g><path style="opacity:1" fill="#8fcf8b" d="M 20.5,75.5 C 20.5,75.1667 20.5,74.8333 20.5,74.5C 21.7943,76.0478 22.4609,78.0478 22.5,80.5C 22.4954,82.6965 22.162,84.6965 21.5,86.5C 21.815,82.6286 21.4816,78.9619 20.5,75.5 Z"/></g>
<g><path style="opacity:0.999" fill="#52b44b" d="M 117.5,10.5 C 117.738,12.4044 118.738,13.7377 120.5,14.5C 121.338,14.8417 121.672,15.5084 121.5,16.5C 121.66,18.153 122.326,19.4863 123.5,20.5C 123.5,20.8333 123.5,21.1667 123.5,21.5C 123.5,24.1667 123.5,26.8333 123.5,29.5C 119.94,29.7175 119.94,30.7175 123.5,32.5C 123.5,32.8333 123.5,33.1667 123.5,33.5C 123.427,35.0269 124.094,36.0269 125.5,36.5C 125.369,37.3764 125.702,38.0431 126.5,38.5C 127.256,34.3379 127.923,30.1713 128.5,26C 128.833,25.5 129.167,25 129.5,24.5C 130.182,25.2427 130.849,25.9094 131.5,26.5C 132.634,29.3704 133.3,32.3704 133.5,35.5C 133.326,37.861 132.993,40.1944 132.5,42.5C 132.297,44.0443 131.63,45.3777 130.5,46.5C 131.309,48.0709 131.643,49.7376 131.5,51.5C 131.238,52.9778 131.571,54.3112 132.5,55.5C 133.452,53.9547 133.785,52.288 133.5,50.5C 133.232,48.901 133.566,47.5676 134.5,46.5C 135.906,46.0269 136.573,45.0269 136.5,43.5C 136.328,42.5084 136.662,41.8417 137.5,41.5C 138.805,43.3972 139.471,45.7305 139.5,48.5C 139.261,52.5162 138.928,56.5162 138.5,60.5C 137.167,61.1667 136.167,62.1667 135.5,63.5C 135.167,64.1667 134.833,64.8333 134.5,65.5C 134.337,67.8568 134.503,70.1902 135,72.5C 135.513,71.4734 136.013,70.4734 136.5,69.5C 137.906,69.0269 138.573,68.0269 138.5,66.5C 140.167,64.1667 142.167,62.1667 144.5,60.5C 144.5,63.8333 144.5,67.1667 144.5,70.5C 143.655,71.6715 142.989,73.0048 142.5,74.5C 141.326,75.5137 140.66,76.847 140.5,78.5C 138.003,80.9413 135.669,83.608 133.5,86.5C 131.928,92.5565 133.262,92.8899 137.5,87.5C 139.296,85.1 141.63,83.4333 144.5,82.5C 144.5,84.8333 144.5,87.1667 144.5,89.5C 142.885,92.4495 140.885,95.1162 138.5,97.5C 137.094,97.9731 136.427,98.9731 136.5,100.5C 134.641,102.573 132.308,103.906 129.5,104.5C 127.862,105.705 127.529,107.038 128.5,108.5C 131.896,106.368 135.563,105.035 139.5,104.5C 140.338,104.842 140.672,105.508 140.5,106.5C 137.833,112.5 133.5,116.833 127.5,119.5C 123.988,118.945 120.988,119.612 118.5,121.5C 117.833,122.833 116.833,123.833 115.5,124.5C 113.683,125.219 113.016,126.219 113.5,127.5C 115.336,126.972 117.003,126.306 118.5,125.5C 119.167,125.5 119.833,125.5 120.5,125.5C 124.042,125.187 127.375,125.521 130.5,126.5C 128.588,129.461 125.921,131.461 122.5,132.5C 120.447,132.402 118.78,133.069 117.5,134.5C 114.5,134.5 111.5,134.5 108.5,134.5C 107.833,134.5 107.5,134.167 107.5,133.5C 106.909,132.849 106.243,132.182 105.5,131.5C 106.127,130.583 106.461,129.583 106.5,128.5C 106.403,121.974 108.069,115.974 111.5,110.5C 112.906,110.027 113.573,109.027 113.5,107.5C 115.268,111.044 116.102,115.044 116,119.5C 116.717,118.956 117.217,118.289 117.5,117.5C 118.234,116.292 118.567,114.959 118.5,113.5C 118.212,106.437 118.712,99.4369 120,92.5C 120.333,92.1667 120.667,91.8333 121,91.5C 121.852,92.5707 122.685,93.5707 123.5,94.5C 123.5,94.8333 123.5,95.1667 123.5,95.5C 123.177,99.226 123.511,102.893 124.5,106.5C 125.298,106.043 125.631,105.376 125.5,104.5C 126.707,101.148 126.707,97.8142 125.5,94.5C 124.835,89.1747 124.168,83.8414 123.5,78.5C 123.507,76.6307 123.84,74.964 124.5,73.5C 126.674,76.5154 128.341,79.8487 129.5,83.5C 129.343,84.8734 129.51,86.2068 130,87.5C 131.352,85.4062 131.852,83.0728 131.5,80.5C 128.198,77.5641 126.198,73.8974 125.5,69.5C 125.072,66.2154 124.072,63.2154 122.5,60.5C 122.5,60.1667 122.5,59.8333 122.5,59.5C 122.328,58.5084 122.662,57.8417 123.5,57.5C 125.5,58.8333 127.167,60.5 128.5,62.5C 128.685,64.1958 129.519,65.5291 131,66.5C 131.765,64.9343 131.598,63.6009 130.5,62.5C 130.715,60.8212 130.048,59.8212 128.5,59.5C 126.833,58.5 125.5,57.1667 124.5,55.5C 124.446,53.368 123.446,52.0347 121.5,51.5C 120.662,51.1583 120.328,50.4916 120.5,49.5C 119.758,47.5742 118.758,45.7409 117.5,44C 118.094,43.5357 118.761,43.369 119.5,43.5C 121.784,43.9752 123.784,44.9752 125.5,46.5C 125.5,46.8333 125.5,47.1667 125.5,47.5C 125.843,49.2252 126.843,49.7252 128.5,49C 128.272,48.6012 127.938,48.4346 127.5,48.5C 127.5,48.1667 127.5,47.8333 127.5,47.5C 127.446,45.368 126.446,44.0347 124.5,43.5C 124.027,42.0937 123.027,41.427 121.5,41.5C 121.167,41.5 120.833,41.5 120.5,41.5C 117.192,38.5285 113.859,35.5285 110.5,32.5C 111.919,31.5489 113.585,31.2155 115.5,31.5C 116.167,31.5 116.833,31.5 117.5,31.5C 117.5,32.1667 117.833,32.5 118.5,32.5C 118.976,34.0664 119.643,34.3998 120.5,33.5C 120.145,32.4777 119.478,31.811 118.5,31.5C 118.179,29.9519 117.179,29.2852 115.5,29.5C 113.485,28.0762 111.152,27.4095 108.5,27.5C 106.847,27.3404 105.514,26.6737 104.5,25.5C 104.027,24.0937 103.027,23.427 101.5,23.5C 101.167,22.8333 100.833,22.1667 100.5,21.5C 102.5,21.5 104.5,21.5 106.5,21.5C 109.123,21.5439 111.789,21.5439 114.5,21.5C 114.917,23.6452 115.917,24.3118 117.5,23.5C 116.201,19.0358 116.201,14.7025 117.5,10.5 Z"/></g>
<g><path style="opacity:0.486" fill="#aedbab" d="M 138.5,66.5 C 138.573,68.0269 137.906,69.0269 136.5,69.5C 136.427,67.9731 137.094,66.9731 138.5,66.5 Z"/></g>
<g><path style="opacity:0.043" fill="#eef7ed" d="M 134.5,65.5 C 135.167,66.8333 135.833,68.1667 136.5,69.5C 136.013,70.4734 135.513,71.4734 135,72.5C 134.503,70.1902 134.337,67.8568 134.5,65.5 Z"/></g>
<g><path style="opacity:0.169" fill="#cce9ca" d="M 128.5,62.5 C 128.833,62.5 129.167,62.5 129.5,62.5C 129.833,63.8333 130.167,63.8333 130.5,62.5C 131.598,63.6009 131.765,64.9343 131,66.5C 129.519,65.5291 128.685,64.1958 128.5,62.5 Z"/></g>
<g><path style="opacity:0.012" fill="#ddf0dc" d="M 138.5,60.5 C 138.5,62.5 137.5,63.5 135.5,63.5C 136.167,62.1667 137.167,61.1667 138.5,60.5 Z"/></g>
<g><path style="opacity:0.871" fill="#a6d8a0" d="M 128.5,59.5 C 130.048,59.8212 130.715,60.8212 130.5,62.5C 130.167,62.5 129.833,62.5 129.5,62.5C 129.443,61.391 129.11,60.391 128.5,59.5 Z"/></g>
<g><path style="opacity:0.58" fill="#abdaa8" d="M 133.5,50.5 C 133.785,52.288 133.452,53.9547 132.5,55.5C 131.571,54.3112 131.238,52.9778 131.5,51.5C 132.167,51.1667 132.833,50.8333 133.5,50.5 Z"/></g>
<g><path style="opacity:0.455" fill="#a3d69f" d="M 125.5,47.5 C 125.833,47.5 126.167,47.5 126.5,47.5C 126.5,48.1667 126.833,48.5 127.5,48.5C 127.938,48.4346 128.272,48.6012 128.5,49C 126.843,49.7252 125.843,49.2252 125.5,47.5 Z"/></g>
<g><path style="opacity:0.216" fill="#cce9cb" d="M 136.5,43.5 C 136.573,45.0269 135.906,46.0269 134.5,46.5C 134.427,44.9731 135.094,43.9731 136.5,43.5 Z"/></g>
<g><path style="opacity:0.886" fill="#a4d79f" d="M 124.5,43.5 C 126.446,44.0347 127.446,45.368 127.5,47.5C 127.167,47.5 126.833,47.5 126.5,47.5C 126.5,46.8333 126.167,46.5 125.5,46.5C 125.443,45.391 125.11,44.391 124.5,43.5 Z"/></g>
<g><path style="opacity:0.478" fill="#addbaa" d="M 123.5,33.5 C 124.906,33.9731 125.573,34.9731 125.5,36.5C 124.094,36.0269 123.427,35.0269 123.5,33.5 Z"/></g>
<g><path style="opacity:0.533" fill="#b4deb1" d="M 118.5,31.5 C 119.478,31.811 120.145,32.4777 120.5,33.5C 119.643,34.3998 118.976,34.0664 118.5,32.5C 118.5,32.1667 118.5,31.8333 118.5,31.5 Z"/></g>
<g><path style="opacity:0.196" fill="#cde9cb" d="M 142.5,74.5 C 142.771,76.3797 142.104,77.713 140.5,78.5C 140.66,76.847 141.326,75.5137 142.5,74.5 Z"/></g>
<g><path style="opacity:0.565" fill="#acdba8" d="M 4.5,77.5 C 6.26441,78.326 7.59774,79.6593 8.5,81.5C 6.29014,81.106 4.95681,79.7727 4.5,77.5 Z"/></g>
<g><path style="opacity:1" fill="#533931" d="M 62.5,76.5 C 61.1667,77.1667 60.1667,78.1667 59.5,79.5C 54.4682,81.3699 49.1348,82.0366 43.5,81.5C 42.209,81.7373 41.209,81.404 40.5,80.5C 44.9819,79.6745 49.6486,79.1745 54.5,79C 54.0426,78.586 53.7093,78.086 53.5,77.5C 55.9589,76.6737 58.4589,76.007 61,75.5C 61.7648,75.5699 62.2648,75.9033 62.5,76.5 Z"/></g>
<g><path style="opacity:1" fill="#c5bebf" d="M 36.5,77.5 C 37.8333,78.5 39.1667,79.5 40.5,80.5C 41.209,81.404 42.209,81.7373 43.5,81.5C 48.3165,82.3261 53.3165,82.8261 58.5,83C 59.756,83.4169 60.4226,84.2502 60.5,85.5C 53.2573,84.0545 45.9239,82.8879 38.5,82C 36.8934,80.951 36.2267,79.451 36.5,77.5 Z"/></g>
<g><path style="opacity:0.004" fill="#dff1dd" d="M -0.5,81.5 C 0.491622,81.3284 1.15829,81.6618 1.5,82.5C 0.596028,83.209 0.262695,84.209 0.5,85.5C 0.166667,85.5 -0.166667,85.5 -0.5,85.5C -0.5,84.1667 -0.5,82.8333 -0.5,81.5 Z"/></g>
<g><path style="opacity:1" fill="#d0c7c9" d="M 103.5,72.5 C 103.785,74.288 103.452,75.9547 102.5,77.5C 97.6836,79.1551 92.6836,79.9884 87.5,80C 84.6706,82.8273 81.3372,84.8273 77.5,86C 71.6513,86.8184 65.9846,86.6517 60.5,85.5C 71.4589,86.7942 80.6256,83.4609 88,75.5C 88.3742,76.4162 88.8742,77.2496 89.5,78C 95.6863,79.732 100.353,77.8986 103.5,72.5 Z"/></g>
<g><path style="opacity:0.435" fill="#bee3bc" d="M 131.5,80.5 C 131.852,83.0728 131.352,85.4062 130,87.5C 129.51,86.2068 129.343,84.8734 129.5,83.5C 130.167,82.5 130.833,81.5 131.5,80.5 Z"/></g>
<g><path style="opacity:0.282" fill="#afdcab" d="M 14.5,79.5 C 14.3398,81.1992 14.5065,82.8659 15,84.5C 15.2784,83.5842 15.7784,82.9175 16.5,82.5C 16.477,84.9267 15.977,87.26 15,89.5C 13.3159,86.1056 13.1492,82.7723 14.5,79.5 Z"/></g>
<g><path style="opacity:0.169" fill="#c9e7c7" d="M 10.5,84.5 C 12.6157,86.0881 12.949,88.0881 11.5,90.5C 10.8933,90.3764 10.56,90.0431 10.5,89.5C 11.494,88.0011 11.494,86.3344 10.5,84.5 Z"/></g>
<g><path style="opacity:0.114" fill="#cae8c8" d="M 133.5,86.5 C 133.351,87.552 133.517,88.552 134,89.5C 134.816,88.1772 135.983,87.5106 137.5,87.5C 133.262,92.8899 131.928,92.5565 133.5,86.5 Z"/></g>
<g><path style="opacity:0.02" fill="#d6edd4" d="M 138.5,97.5 C 138.573,99.0269 137.906,100.027 136.5,100.5C 136.427,98.9731 137.094,97.9731 138.5,97.5 Z"/></g>
<g><path style="opacity:0.473" fill="#b7dfb5" d="M 123.5,95.5 C 124.167,98.5 124.833,101.5 125.5,104.5C 125.631,105.376 125.298,106.043 124.5,106.5C 123.511,102.893 123.177,99.226 123.5,95.5 Z"/></g>
<g><path style="opacity:0.129" fill="#ddf0dc" d="M 20.5,96.5 C 20.8333,96.5 21.1667,96.5 21.5,96.5C 21.6653,100.182 21.4986,103.848 21,107.5C 20.2086,106.255 19.7086,104.922 19.5,103.5C 20.4682,101.393 20.8016,99.0593 20.5,96.5 Z"/></g>
<g><path style="opacity:0.006" fill="#eef7ee" d="M 139.5,104.5 C 140.386,103.224 141.386,103.224 142.5,104.5C 142.145,105.522 141.478,106.189 140.5,106.5C 140.672,105.508 140.338,104.842 139.5,104.5 Z"/></g>
<g><path style="opacity:0.71" fill="#b7e0b3" d="M 11.5,106.5 C 9.48838,105.986 7.48838,105.82 5.5,106C 6.25244,106.671 6.58577,107.504 6.5,108.5C 4.2729,107.599 3.2729,105.933 3.5,103.5C 6.54176,103.733 9.20843,104.733 11.5,106.5 Z"/></g>
<g><path style="opacity:0.31" fill="#c9e8c8" d="M 29.5,105.5 C 30.1667,105.5 30.8333,105.5 31.5,105.5C 31.5,105.833 31.5,106.167 31.5,106.5C 30.6745,110.982 30.1745,115.649 30,120.5C 29.2828,119.956 28.7828,119.289 28.5,118.5C 29.4849,114.366 29.8182,110.032 29.5,105.5 Z"/></g>
<g><path style="opacity:0.212" fill="#d0eace" d="M 31.5,106.5 C 32.9063,106.973 33.573,107.973 33.5,109.5C 32.0937,109.027 31.427,108.027 31.5,106.5 Z"/></g>
<g><path style="opacity:0.122" fill="#dbefda" d="M 113.5,107.5 C 113.573,109.027 112.906,110.027 111.5,110.5C 111.427,108.973 112.094,107.973 113.5,107.5 Z"/></g>
<g><path style="opacity:0.455" fill="#c5e5c3" d="M 113.5,105.5 C 114.167,105.5 114.833,105.5 115.5,105.5C 116.109,109.605 116.775,113.605 117.5,117.5C 117.217,118.289 116.717,118.956 116,119.5C 116.102,115.044 115.268,111.044 113.5,107.5C 113.5,106.833 113.5,106.167 113.5,105.5 Z"/></g>
<g><path style="opacity:0.227" fill="#c9e7c8" d="M 127.5,109.5 C 126.746,111.446 125.412,112.279 123.5,112C 124.471,110.519 125.804,109.685 127.5,109.5 Z"/></g>
<g><path style="opacity:0.204" fill="#cbe8ca" d="M 33.5,110.5 C 34.9063,110.973 35.573,111.973 35.5,113.5C 34.0937,113.027 33.427,112.027 33.5,110.5 Z"/></g>
<g><path style="opacity:0.075" fill="#d9eed8" d="M 35.5,114.5 C 37.1042,115.287 37.7709,116.62 37.5,118.5C 36.3263,117.486 35.6596,116.153 35.5,114.5 Z"/></g>
<g><path style="opacity:0.416" fill="#bde2b9" d="M 13.5,116.5 C 15.0269,116.427 16.0269,117.094 16.5,118.5C 14.9731,118.573 13.9731,117.906 13.5,116.5 Z"/></g>
<g><path style="opacity:0.012" fill="#f7fbf7" d="M 104.5,119.5 C 105.302,118.115 105.969,118.282 106.5,120C 106.43,120.765 106.097,121.265 105.5,121.5C 105.672,120.508 105.338,119.842 104.5,119.5 Z"/></g>
<g><path style="opacity:0.718" fill="#a5d8a2" d="M 127.5,119.5 C 124.61,120.245 121.61,120.912 118.5,121.5C 120.988,119.612 123.988,118.945 127.5,119.5 Z"/></g>
<g><path style="opacity:0.659" fill="#b8e0b5" d="M 42.5,120.5 C 41.5386,122.265 41.2053,124.265 41.5,126.5C 40.7337,124.316 40.0671,121.982 39.5,119.5C 40.8595,118.335 41.8595,118.668 42.5,120.5 Z"/></g>
<g><path style="opacity:0.616" fill="#addbaa" d="M 25.5,125.5 C 22.1501,125.335 18.8168,125.502 15.5,126C 16.056,126.383 16.3893,126.883 16.5,127.5C 15.0047,127.585 14.0047,126.919 13.5,125.5C 17.6493,124.191 21.6493,124.191 25.5,125.5 Z"/></g>
<g><path style="opacity:0.455" fill="#bae1b8" d="M 120.5,125.5 C 124.351,124.191 128.351,124.191 132.5,125.5C 132.043,126.298 131.376,126.631 130.5,126.5C 127.375,125.521 124.042,125.187 120.5,125.5 Z"/></g>
<g><path style="opacity:0.031" fill="#d7edd6" d="M 29.5,124.5 C 30.6266,125.122 31.6266,125.955 32.5,127C 30.6092,127.203 28.9425,126.703 27.5,125.5C 28.4916,125.672 29.1583,125.338 29.5,124.5 Z"/></g>
<g><path style="opacity:0.514" fill="#a3d7a0" d="M 37.5,119.5 C 39.1745,122.507 39.8412,125.84 39.5,129.5C 38.4192,126.373 37.7526,123.04 37.5,119.5 Z"/></g>
<g><path style="opacity:0.698" fill="#b4deb1" d="M 46.5,124.5 C 48.2624,125.262 49.2624,126.596 49.5,128.5C 47.7376,127.738 46.7376,126.404 46.5,124.5 Z"/></g>
<g><path style="opacity:0.024" fill="#d1ebcf" d="M 115.5,124.5 C 116.209,125.404 117.209,125.737 118.5,125.5C 117.003,126.306 115.336,126.972 113.5,127.5C 113.016,126.219 113.683,125.219 115.5,124.5 Z"/></g>
<g><path style="opacity:0.999" fill="#353535" d="M 144.5,123.5 C 144.5,125.833 144.5,128.167 144.5,130.5C 141.833,134.167 141.833,137.833 144.5,141.5C 144.5,143.833 144.5,146.167 144.5,148.5C 143.833,148.5 143.5,148.167 143.5,147.5C 143.167,146.5 142.5,145.833 141.5,145.5C 140.662,145.158 140.328,144.492 140.5,143.5C 139.705,139.215 139.372,134.881 139.5,130.5C 140.01,127.326 141.677,124.992 144.5,123.5 Z"/></g>
<g><path style="opacity:0.71" fill="#acdba9" d="M 98.5,125.5 C 98.2624,127.404 97.2624,128.738 95.5,129.5C 95.7376,127.596 96.7376,126.262 98.5,125.5 Z"/></g>
<g><path style="opacity:0.843" fill="#a1d59c" d="M 49.5,128.5 C 50.5,129.167 51.5,129.833 52.5,130.5C 52.5,131.167 52.5,131.833 52.5,132.5C 50.7376,131.738 49.7376,130.404 49.5,128.5 Z"/></g>
<g><path style="opacity:0.933" fill="#abdaa5" d="M 56.5,129.5 C 54.9519,129.821 54.2852,130.821 54.5,132.5C 54.1667,132.5 53.8333,132.5 53.5,132.5C 53.6716,131.508 53.3382,130.842 52.5,130.5C 52.5884,127.394 53.9217,127.06 56.5,129.5 Z"/></g>
<g><path style="opacity:0.902" fill="#a3d69d" d="M 93.5,130.5 C 93.1667,130.5 92.8333,130.5 92.5,130.5C 90.7411,130.046 88.7411,130.046 86.5,130.5C 87.9117,129.467 89.5784,128.801 91.5,128.5C 92.7133,128.747 93.38,129.414 93.5,130.5 Z"/></g>
<g><path style="opacity:0.412" fill="#b6dfb3" d="M 20.5,130.5 C 22.0269,130.427 23.0269,131.094 23.5,132.5C 21.9731,132.573 20.9731,131.906 20.5,130.5 Z"/></g>
<g><path style="opacity:0.612" fill="#b6dfb3" d="M 86.5,130.5 C 86.0269,131.906 85.0269,132.573 83.5,132.5C 83.9731,131.094 84.9731,130.427 86.5,130.5 Z"/></g>
<g><path style="opacity:1" fill="#8ecf86" d="M 106.5,128.5 C 106.461,129.583 106.127,130.583 105.5,131.5C 106.243,132.182 106.909,132.849 107.5,133.5C 105.833,134.167 104.167,134.833 102.5,135.5C 103.176,133.812 103.176,132.479 102.5,131.5C 103.167,131.5 103.5,131.167 103.5,130.5C 104.167,130.5 104.5,130.167 104.5,129.5C 105.167,129.167 105.833,128.833 106.5,128.5 Z"/></g>
<g><path style="opacity:1" fill="#8ece85" d="M 58.5,130.5 C 60.674,130.75 62.3406,131.75 63.5,133.5C 61.0107,133.759 59.344,132.759 58.5,130.5 Z"/></g>
<g><path style="opacity:0.137" fill="#d9d9d9" d="M 139.5,130.5 C 139.372,134.881 139.705,139.215 140.5,143.5C 138.967,141.366 138.3,138.866 138.5,136C 138.506,133.967 138.839,132.134 139.5,130.5 Z"/></g>
<g><path style="opacity:0.133" fill="#d3ecd1" d="M 122.5,132.5 C 121.22,133.931 119.553,134.598 117.5,134.5C 118.78,133.069 120.447,132.402 122.5,132.5 Z"/></g>
<g><path style="opacity:0.765" fill="#a7d9a2" d="M 108.5,134.5 C 111.5,134.5 114.5,134.5 117.5,134.5C 114.447,136.88 111.447,136.88 108.5,134.5 Z"/></g>
<g><path style="opacity:0.557" fill="#9ed59a" d="M 41.5,134.5 C 43.0269,134.427 44.0269,135.094 44.5,136.5C 42.9731,136.573 41.9731,135.906 41.5,134.5 Z"/></g>
<g><path style="opacity:0.906" fill="#8acd84" d="M 83.5,132.5 C 82.4154,134.587 80.7488,135.92 78.5,136.5C 79.5846,134.413 81.2512,133.08 83.5,132.5 Z"/></g>
<g><path style="opacity:0.957" fill="#a5d79f" d="M 92.5,130.5 C 92.8333,131.833 93.1667,131.833 93.5,130.5C 93.8333,130.5 94.1667,130.5 94.5,130.5C 94.3794,133.105 93.3794,135.105 91.5,136.5C 91.5,135.833 91.5,135.167 91.5,134.5C 92.8333,133.833 92.8333,133.167 91.5,132.5C 91.3284,131.508 91.6618,130.842 92.5,130.5 Z"/></g>
<g><path style="opacity:0.004" fill="#d1eacf" d="M 89.5,135.5 C 89.5,136.167 89.5,136.833 89.5,137.5C 88.1667,137.833 88.1667,138.167 89.5,138.5C 88.7494,139.573 87.7494,139.74 86.5,139C 87.1634,137.482 88.1634,136.315 89.5,135.5 Z"/></g>
<g><path style="opacity:0.314" fill="#cfeace" d="M 44.5,136.5 C 45.4734,136.987 46.4734,137.487 47.5,138C 45.1902,138.497 42.8568,138.663 40.5,138.5C 41.8333,137.833 43.1667,137.167 44.5,136.5 Z"/></g>
<g><path style="opacity:0.02" fill="#eaf6ea" d="M 56.5,136.5 C 57.6266,137.122 58.6266,137.955 59.5,139C 57.6092,139.203 55.9425,138.703 54.5,137.5C 55.4916,137.672 56.1583,137.338 56.5,136.5 Z"/></g>
<g><path style="opacity:0.188" fill="#d5edd4" d="M 100.5,136.5 C 102.167,137.167 103.833,137.833 105.5,138.5C 102.813,138.664 100.146,138.497 97.5,138C 98.5266,137.487 99.5266,136.987 100.5,136.5 Z"/></g>
<g><path style="opacity:0.631" fill="#97d193" d="M 66.5,135.5 C 68.7271,136.401 69.7271,138.067 69.5,140.5C 71.8333,140.5 74.1667,140.5 76.5,140.5C 76.2291,138.62 76.8958,137.287 78.5,136.5C 77.962,138.117 77.6287,139.784 77.5,141.5C 74.5,141.5 71.5,141.5 68.5,141.5C 68.2964,139.315 67.6298,137.315 66.5,135.5 Z"/></g>
<g><path style="opacity:0.714" fill="#afdcab" d="M 29.5,140.5 C 30.8273,142.182 32.4939,143.515 34.5,144.5C 31.6842,144.456 29.3508,143.456 27.5,141.5C 27.9569,140.702 28.6236,140.369 29.5,140.5 Z"/></g>
<g><path style="opacity:0.882" fill="#7dc677" d="M 54.5,142.5 C 56.9479,141.527 59.6146,141.194 62.5,141.5C 62.5,142.5 62.5,143.5 62.5,144.5C 61.5,144.5 60.5,144.5 59.5,144.5C 58.4479,142.744 56.7812,142.077 54.5,142.5 Z"/></g>
<g><path style="opacity:0.867" fill="#89cb83" d="M 89.5,141.5 C 88.3915,142.29 87.0581,142.79 85.5,143C 86.4158,143.278 87.0825,143.778 87.5,144.5C 85.3352,144.884 83.6685,144.217 82.5,142.5C 84.7427,141.526 87.076,141.192 89.5,141.5 Z"/></g>
<g><path style="opacity:0.608" fill="#afdcac" d="M 89.5,141.5 C 91.6848,140.913 93.3515,141.913 94.5,144.5C 92.5887,143.925 90.922,142.925 89.5,141.5 Z"/></g>
<g><path style="opacity:0.157" fill="#d6eed5" d="M 113.5,139.5 C 114.5,139.5 115.5,139.5 116.5,139.5C 116.737,140.791 116.404,141.791 115.5,142.5C 115.218,141.222 114.551,140.222 113.5,139.5 Z"/></g>
<g><path style="opacity:1" fill="#95d08d" d="M 111.5,139.5 C 112.167,139.5 112.833,139.5 113.5,139.5C 114.551,140.222 115.218,141.222 115.5,142.5C 108.674,146.566 101.674,147.233 94.5,144.5C 101.027,144.952 107.36,144.119 113.5,142C 112.619,141.292 111.953,140.458 111.5,139.5 Z"/></g>
<g><path style="opacity:0.533" fill="#c2e5bf" d="M 75.5,145.5 C 77.0269,145.427 78.0269,146.094 78.5,147.5C 76.9731,147.573 75.9731,146.906 75.5,145.5 Z"/></g>
<g><path style="opacity:0.647" fill="#aedbaa" d="M 56.5,145.5 C 56.0269,146.906 55.0269,147.573 53.5,147.5C 53.9731,146.094 54.9731,145.427 56.5,145.5 Z"/></g>
<g><path style="opacity:0.078" fill="#ababab" d="M 141.5,145.5 C 142.5,145.833 143.167,146.5 143.5,147.5C 142.167,147.5 141.5,146.833 141.5,145.5 Z"/></g>
<g><path style="opacity:0.616" fill="#b7e0b4" d="M 52.5,147.5 C 52.0269,148.906 51.0269,149.573 49.5,149.5C 49.9731,148.094 50.9731,147.427 52.5,147.5 Z"/></g>
<g><path style="opacity:0.373" fill="#b8e0b5" d="M 78.5,147.5 C 80.0269,147.427 81.0269,148.094 81.5,149.5C 79.9731,149.573 78.9731,148.906 78.5,147.5 Z"/></g>
<g><path style="opacity:0.82" fill="#9dd499" d="M 81.5,149.5 C 85.1573,150.162 88.824,150.829 92.5,151.5C 94.3328,151.415 95.6661,150.748 96.5,149.5C 98.1898,149.856 99.1898,150.856 99.5,152.5C 95.5,152.5 91.5,152.5 87.5,152.5C 85.5,151.5 83.5,150.5 81.5,149.5 Z"/></g>
<g><path style="opacity:0.878" fill="#88ca83" d="M 49.5,149.5 C 49.3893,150.117 49.056,150.617 48.5,151C 49.7932,151.49 51.1266,151.657 52.5,151.5C 52.5,151.833 52.5,152.167 52.5,152.5C 50.1667,152.5 47.8333,152.5 45.5,152.5C 46.2623,150.738 47.5956,149.738 49.5,149.5 Z"/></g>
<g><path style="opacity:0.129" fill="#d5edd4" d="M 61.5,150.5 C 60.5,151.167 59.5,151.833 58.5,152.5C 56.5,152.5 54.5,152.5 52.5,152.5C 52.5,152.167 52.5,151.833 52.5,151.5C 55.5176,151.296 58.5176,150.963 61.5,150.5 Z"/></g>
</svg>
